<?xml version="1.0" encoding="utf-8"?>
<!-- Generator: Adobe Illustrator 16.0.0, SVG Export Plug-In . SVG Version: 6.00 Build 0)  -->
<!DOCTYPE svg PUBLIC "-//W3C//DTD SVG 1.1//EN" "http://www.w3.org/Graphics/SVG/1.1/DTD/svg11.dtd">
<svg version="1.1" id="Layer_1" xmlns="http://www.w3.org/2000/svg" xmlns:xlink="http://www.w3.org/1999/xlink" x="0px" y="0px"
	 width="120px" height="120px" viewBox="0 0 120 120" enable-background="new 0 0 120 120" xml:space="preserve">
<g>
	<path fill-rule="evenodd" clip-rule="evenodd" fill="#231F20" d="M52.402,63.247c1.635,0.636,3.27,1.317,4.86,2.089
		c-5.087,2.045-10.038,4.497-14.716,7.313c-1.59-0.818-3.225-1.636-4.86-2.362C42.41,67.562,47.315,65.2,52.402,63.247
		L52.402,63.247z"/>
	<path fill-rule="evenodd" clip-rule="evenodd" fill="#231F20" d="M46.316,61.112c-5.269,1.682-10.356,3.861-15.216,6.495
		c1.544,0.59,3.088,1.182,4.587,1.817c4.678-2.771,9.629-5.087,14.761-6.904C49.086,62.021,47.723,61.521,46.316,61.112
		L46.316,61.112z"/>
	<path fill-rule="evenodd" clip-rule="evenodd" fill="#231F20" d="M84.604,71.105c0.092,0.272,0.318,0.362,0.545,0.362
		c0.137,0,0.273,0,0.364-0.09c0.045-0.046,0.091-0.137,0.091-0.228c0-0.182-0.136-0.272-0.318-0.272l-0.317-0.092
		c-0.091-0.045-0.229-0.045-0.318-0.136c-0.091-0.091-0.137-0.227-0.137-0.363c0-0.363,0.319-0.499,0.636-0.499
		c0.273,0,0.546,0.136,0.636,0.453l-0.227,0.046c0-0.182-0.227-0.317-0.454-0.317c-0.136,0-0.364,0.091-0.364,0.271
		c0,0.228,0.138,0.272,0.319,0.318l0.272,0.046c0.137,0.045,0.272,0.091,0.363,0.136c0.09,0.137,0.136,0.228,0.136,0.409
		c0,0.136-0.046,0.317-0.182,0.408c-0.136,0.092-0.317,0.137-0.5,0.137c-0.362,0-0.59-0.182-0.726-0.545L84.604,71.105
		L84.604,71.105z"/>
	<polygon fill-rule="evenodd" clip-rule="evenodd" fill="#231F20" points="86.375,71.65 86.193,71.65 86.193,69.833 86.512,69.833 
		87.103,71.286 87.603,69.833 87.965,69.833 87.965,71.65 87.738,71.65 87.738,70.061 87.738,70.061 87.147,71.65 86.967,71.65 
		86.375,70.061 86.375,70.061 86.375,71.65 	"/>
	<path fill-rule="evenodd" clip-rule="evenodd" fill="#231F20" d="M63.438,63.021c-4.179-1.999-8.493-3.679-12.899-5.042
		c-1.59,0.454-3.133,0.954-4.633,1.454c4.542,1.362,8.993,3.088,13.262,5.132C60.578,64.019,61.984,63.52,63.438,63.021
		L63.438,63.021z"/>
	<path fill-rule="evenodd" clip-rule="evenodd" fill="#231F20" d="M70.206,61.021c-4.225-1.862-8.629-3.406-13.125-4.632
		c-1.454,0.272-2.862,0.59-4.271,0.954c4.452,1.317,8.812,2.952,12.991,4.951C67.254,61.84,68.752,61.385,70.206,61.021
		L70.206,61.021z"/>
	<path fill-rule="evenodd" clip-rule="evenodd" fill="#231F20" d="M81.106,64.655c-10.674,3.589-20.665,8.721-29.704,15.124
		c2.271,1.408,4.451,2.861,6.585,4.452c8.539-6.768,18.032-12.4,28.206-16.67C84.513,66.518,82.833,65.563,81.106,64.655
		L81.106,64.655z"/>
	<path fill-rule="evenodd" clip-rule="evenodd" fill="#231F20" d="M73.749,61.203c-11.082,2.907-21.484,7.631-30.886,13.898
		c2.089,1.045,4.179,2.135,6.223,3.315c9.221-6.358,19.439-11.354,30.34-14.625C77.564,62.884,75.702,61.977,73.749,61.203
		L73.749,61.203z"/>
	<path fill-rule="evenodd" clip-rule="evenodd" fill="#231F20" d="M43.272,39.538c2.68,0,4.043,1.999,4.043,4.678
		c0,2.771-1.317,4.724-4.043,4.724c-2.771,0-4.042-1.953-4.042-4.724C39.23,41.537,40.593,39.538,43.272,39.538L43.272,39.538z
		 M43.272,47.124c0.728,0,1.045-0.636,1.045-2.907c0-2.089-0.227-2.861-1.045-2.861c-0.817,0-1.044,0.772-1.044,2.861
		C42.228,46.487,42.546,47.124,43.272,47.124L43.272,47.124z"/>
	<path fill-rule="evenodd" clip-rule="evenodd" fill="#231F20" d="M49.177,41.809h-1.182v-1.999h1.182v-0.999
		c0-2.226,1.09-3.043,2.998-3.043c0.545,0,1,0.091,1.453,0.136v2.226c-0.137-0.045-0.363-0.091-0.544-0.091
		c-0.773,0-1.045,0.318-1.045,0.862v0.909h1.589v1.999h-1.589v6.949h-2.861V41.809L49.177,41.809z"/>
	<path fill-rule="evenodd" clip-rule="evenodd" fill="#231F20" d="M15.43,42.309c0-0.545-0.227-0.908-0.727-0.908
		c-0.727,0-0.954,0.635-0.954,1.181l-2.543-0.545c0.318-1.726,1.953-2.452,3.588-2.452c1.726,0,3.542,0.726,3.542,2.725v4.996
		c0,0.999,0.136,1.317,0.272,1.453h-2.998c-0.045-0.272-0.091-0.681-0.091-0.817c-0.5,0.5-1.363,1-2.18,1
		c-1.453,0-2.543-1-2.498-2.635c0.045-2.316,2.679-3.043,4.587-3.27V42.309L15.43,42.309z M15.43,44.443
		c-1,0.091-1.771,0.5-1.771,1.635c0,0.636,0.318,0.954,0.863,0.954c0.318,0,0.681-0.227,0.908-0.545V44.443L15.43,44.443z"/>
	<path fill-rule="evenodd" clip-rule="evenodd" fill="#231F20" d="M22.924,42.354v6.404h-2.907v-8.948h2.816l0.045,0.909l0,0
		c0.636-0.636,1.408-1.135,2.543-1.135c1.272,0,1.999,0.863,1.999,2.089v7.085h-2.907v-6.177c0-0.5-0.182-0.772-0.682-0.772
		C23.515,41.809,23.197,41.991,22.924,42.354L22.924,42.354z"/>
	<polygon fill-rule="evenodd" clip-rule="evenodd" fill="#231F20" points="29.192,36.041 32.099,36.041 32.099,42.49 32.145,42.49 
		34.279,39.811 37.141,39.811 34.733,42.536 37.141,48.758 34.143,48.758 32.735,44.853 32.689,44.853 32.099,45.534 32.099,48.758 
		29.192,48.758 29.192,36.041 	"/>
	<path fill-rule="evenodd" clip-rule="evenodd" fill="#231F20" d="M7.754,42.127c1.363,0.455,2.362,1.59,2.362,3.225
		c0,2.18-1.726,3.406-4.179,3.406h-4.86V36.041h4.996c2.271,0,3.724,1.362,3.724,3.089c0,1.68-1.135,2.543-2.043,2.906V42.127
		L7.754,42.127z M4.166,46.396h1.181c0.727,0,1.635-0.318,1.635-1.589c0-0.954-0.59-1.59-1.635-1.59H4.166V46.396L4.166,46.396z
		 M4.166,41.083h1.09c1.136,0,1.59-0.636,1.59-1.362c0-1.227-0.818-1.408-1.544-1.408H4.166V41.083L4.166,41.083z"/>
	<path fill-rule="evenodd" clip-rule="evenodd" fill="#231F20" d="M112.265,42.309c0-0.545-0.272-0.908-0.771-0.908
		c-0.682,0-0.909,0.635-0.955,1.181l-2.497-0.545c0.317-1.726,1.952-2.452,3.588-2.452c1.726,0,3.542,0.726,3.542,2.725v4.996
		c0,0.999,0.138,1.317,0.229,1.453h-2.952c-0.047-0.272-0.092-0.681-0.092-0.817c-0.5,0.5-1.362,1-2.227,1
		c-1.407,0-2.542-1-2.497-2.635c0.091-2.316,2.726-3.043,4.633-3.27V42.309L112.265,42.309z M112.265,44.443
		c-1,0.091-1.771,0.5-1.771,1.635c0,0.636,0.318,0.954,0.818,0.954c0.362,0,0.681-0.227,0.953-0.545V44.443L112.265,44.443z"/>
	<path fill-rule="evenodd" clip-rule="evenodd" fill="#231F20" d="M82.516,44.898c-0.047,0.772,0.181,2.134,1.361,2.134
		c0.682,0,1.271-0.545,1.408-1.226l1.953,0.681c-0.136,0.409-0.999,2.453-3.588,2.453c-2.771,0-4.043-2.226-4.043-4.724
		c0-2.543,1.363-4.678,3.998-4.678c2.77,0,3.769,2.408,3.769,4.769v0.591H82.516L82.516,44.898z M84.695,43.172
		c0-0.818-0.092-1.817-1.09-1.817c-0.818,0-1.137,0.999-1.09,1.817H84.695L84.695,43.172z"/>
	<polygon fill-rule="evenodd" clip-rule="evenodd" fill="#231F20" points="95.142,39.811 98.048,39.811 98.048,48.758 
		95.142,48.758 95.142,39.811 	"/>
	<polygon fill-rule="evenodd" clip-rule="evenodd" fill="#231F20" points="95.142,36.041 98.048,36.041 98.048,38.63 95.142,38.63 
		95.142,36.041 	"/>
	<path fill-rule="evenodd" clip-rule="evenodd" fill="#231F20" d="M104.452,43.126c0-0.363,0-0.817-0.136-1.135
		c-0.137-0.364-0.363-0.636-0.817-0.636c-0.954,0-1.09,1.181-1.09,2.998c0,1.999,0.317,2.679,1.09,2.679
		c0.998,0,1.09-1.044,1.09-1.726l2.271,0.318c-0.228,2.18-1.499,3.316-3.589,3.316c-2.589,0-3.952-2.271-3.952-4.497
		c0-2.452,1.363-4.905,4.089-4.905c3.043,0,3.543,2.68,3.543,3.588H104.452L104.452,43.126z"/>
	<path fill-rule="evenodd" clip-rule="evenodd" fill="#231F20" d="M58.669,36.041h4.224l2.681,12.717h-3.09l-0.5-2.588h-2.952
		l-0.59,2.588h-2.771L58.669,36.041L58.669,36.041z M59.442,43.944h2.089l-0.909-5.178h-0.09L59.442,43.944L59.442,43.944z"/>
	<path fill-rule="evenodd" clip-rule="evenodd" fill="#231F20" d="M88.556,39.811h2.815v1.181h0.046
		c0.59-0.954,1.681-1.408,2.815-1.408v2.906c-0.362-0.136-0.681-0.227-1.181-0.227c-0.771,0-1.271,0.272-1.59,0.681v5.813h-2.906
		V39.811L88.556,39.811z"/>
	<path fill-rule="evenodd" clip-rule="evenodd" fill="#231F20" d="M73.885,42.354v6.404h-2.861v-6.131
		c0-0.5-0.136-0.818-0.682-0.818c-0.271,0-0.726,0.227-0.954,0.545v6.404h-2.861v-8.948h2.816l0.045,0.909l0,0
		c0.638-0.59,1.545-1.135,2.59-1.135c0.909,0,1.499,0.499,1.771,1.181h0.045c0.5-0.545,1.363-1.181,2.544-1.181
		c1.227,0,2.043,0.772,2.043,2.043v7.131H75.52v-6.131c0-0.5-0.136-0.818-0.681-0.818C74.475,41.809,74.067,42.127,73.885,42.354
		L73.885,42.354z"/>
	<path fill-rule="evenodd" clip-rule="evenodd" fill="#231F20" d="M116.58,47.714c0-0.682,0.545-1.227,1.271-1.227
		c0.681,0,1.226,0.545,1.226,1.227c0,0.681-0.545,1.227-1.226,1.227C117.125,48.94,116.58,48.395,116.58,47.714L116.58,47.714z
		 M116.807,47.714c0,0.545,0.454,0.954,1.045,0.954c0.545,0,0.999-0.409,0.999-0.954s-0.454-1-0.999-1
		C117.261,46.714,116.807,47.169,116.807,47.714L116.807,47.714z"/>
	<path fill-rule="evenodd" clip-rule="evenodd" fill="#231F20" d="M118.441,48.395h-0.227l-0.409-0.636h-0.227v0.636h-0.228v-1.363
		h0.636c0.091,0,0.228,0,0.318,0.046c0.136,0.091,0.182,0.182,0.182,0.318c0,0.272-0.227,0.363-0.455,0.363L118.441,48.395
		L118.441,48.395z M117.806,47.578c0.182,0,0.455,0.045,0.455-0.182c0-0.182-0.138-0.227-0.319-0.227h-0.362v0.409H117.806
		L117.806,47.578z"/>
</g>
</svg>
