<?xml version="1.0" encoding="utf-8"?>
<!-- Generator: Adobe Illustrator 16.0.0, SVG Export Plug-In . SVG Version: 6.00 Build 0)  -->
<!DOCTYPE svg PUBLIC "-//W3C//DTD SVG 1.1//EN" "http://www.w3.org/Graphics/SVG/1.1/DTD/svg11.dtd">
<svg version="1.1" id="Layer_1" xmlns="http://www.w3.org/2000/svg" xmlns:xlink="http://www.w3.org/1999/xlink" x="0px" y="0px"
	 width="120px" height="120px" viewBox="0 0 120 120" enable-background="new 0 0 120 120" xml:space="preserve">
<g>
	<polygon fill="#231F20" points="116.037,88.033 116.037,88.354 115.123,88.354 115.123,90.732 114.746,90.732 114.746,88.354 
		113.832,88.354 113.832,88.033 	"/>
	<polygon fill="#231F20" points="116.233,88.033 116.818,88.033 117.623,90.247 117.644,90.247 118.427,88.033 119,88.033 
		119,90.732 118.614,90.732 118.614,88.521 118.603,88.521 117.775,90.732 117.424,90.732 116.631,88.521 116.609,88.521 
		116.609,90.732 116.233,90.732 	"/>
	<rect x="34.371" y="70.229" fill="#231F20" width="5.175" height="20.504"/>
	<path fill="#231F20" d="M81.264,76.104c-0.21-0.11-1.874-1.099-4.354-1.099c-3.338,0-5.664,2.332-5.664,5.472
		c0,3.047,2.226,5.474,5.664,5.474c2.436,0,4.134-0.965,4.354-1.088v5.506c-0.651,0.18-2.414,0.729-4.717,0.729
		c-5.818,0-10.918-4.014-10.918-10.62c0-6.126,4.615-10.612,10.918-10.612c2.436,0,4.23,0.588,4.717,0.733V76.104z"/>
	<path fill="#231F20" d="M27.263,76.104c-0.208-0.11-1.873-1.099-4.352-1.099c-3.349,0-5.669,2.332-5.669,5.472
		c0,3.047,2.221,5.474,5.669,5.474c2.436,0,4.122-0.965,4.352-1.088v5.506c-0.649,0.18-2.412,0.729-4.727,0.729
		c-5.812,0-10.914-4.014-10.914-10.62c0-6.126,4.622-10.612,10.914-10.612c2.435,0,4.231,0.588,4.727,0.733V76.104z"/>
	<path fill="#231F20" d="M108.377,80.478c0,5.866-4.526,10.62-10.83,10.62c-6.312,0-10.83-4.754-10.83-10.62
		c0-5.857,4.518-10.612,10.83-10.612C103.851,69.865,108.377,74.62,108.377,80.478z M97.547,75.086
		c-3.074,0-5.355,2.415-5.355,5.392c0,2.981,2.281,5.396,5.355,5.396c3.062,0,5.345-2.414,5.345-5.396
		C102.892,77.501,100.609,75.086,97.547,75.086z"/>
	<path fill="#231F20" d="M59.172,74.888c-0.077-0.022-2.258-0.623-4.043-0.623c-2.083,0-3.207,0.692-3.207,1.679
		c0,1.25,1.521,1.684,2.369,1.957l1.432,0.451c3.361,1.067,4.893,3.369,4.893,5.861c0,5.154-4.529,6.885-8.496,6.885
		c-2.754,0-5.332-0.506-5.585-0.561V85.82c0.462,0.113,2.633,0.759,4.893,0.759c2.567,0,3.757-0.749,3.757-1.914
		c0-1.041-1.025-1.636-2.313-2.042c-0.309-0.104-0.783-0.25-1.102-0.359c-2.887-0.909-5.29-2.6-5.29-5.993
		c0-3.836,2.876-6.413,7.646-6.413c2.523,0,4.892,0.613,5.046,0.653V74.888z"/>
	<path fill="#231F20" d="M6.136,48.189c0-1.408-1.154-2.556-2.568-2.556C2.156,45.634,1,46.781,1,48.189v5.384
		c0,1.423,1.156,2.571,2.568,2.571c1.414,0,2.568-1.148,2.568-2.571V48.189z"/>
	<path fill="#231F20" d="M20.246,41.125c0-1.408-1.157-2.559-2.568-2.559c-1.415,0-2.568,1.15-2.568,2.559v12.448
		c0,1.423,1.154,2.571,2.568,2.571c1.411,0,2.568-1.148,2.568-2.571V41.125z"/>
	<path fill="#231F20" d="M34.36,31.462c0-1.412-1.157-2.56-2.567-2.56c-1.421,0-2.579,1.147-2.579,2.56v27.229
		c0,1.419,1.157,2.563,2.579,2.563c1.41,0,2.567-1.145,2.567-2.563V31.462z"/>
	<path fill="#231F20" d="M48.462,41.125c0-1.408-1.146-2.559-2.567-2.559c-1.409,0-2.567,1.15-2.567,2.559v12.448
		c0,1.423,1.158,2.571,2.567,2.571c1.422,0,2.567-1.148,2.567-2.571V41.125z"/>
	<path fill="#231F20" d="M62.564,48.189c0-1.408-1.155-2.556-2.555-2.556c-1.422,0-2.567,1.147-2.567,2.556v5.384
		c0,1.423,1.146,2.571,2.567,2.571c1.399,0,2.555-1.148,2.555-2.571V48.189z"/>
	<path fill="#231F20" d="M76.682,41.125c0-1.408-1.147-2.559-2.57-2.559c-1.41,0-2.555,1.15-2.555,2.559v12.448
		c0,1.423,1.145,2.571,2.555,2.571c1.423,0,2.57-1.148,2.57-2.571V41.125z"/>
	<path fill="#231F20" d="M90.793,31.462c0-1.412-1.146-2.56-2.557-2.56c-1.42,0-2.565,1.147-2.565,2.56v27.229
		c0,1.419,1.146,2.563,2.565,2.563c1.41,0,2.557-1.145,2.557-2.563V31.462z"/>
	<path fill="#231F20" d="M104.908,41.125c0-1.408-1.145-2.559-2.59-2.559c-1.41,0-2.555,1.15-2.555,2.559v12.448
		c0,1.423,1.145,2.571,2.555,2.571c1.445,0,2.59-1.148,2.59-2.571V41.125z"/>
	<path fill="#231F20" d="M119,48.189c0-1.408-1.146-2.556-2.555-2.556c-1.423,0-2.57,1.147-2.57,2.556v5.384
		c0,1.423,1.147,2.571,2.57,2.571c1.408,0,2.555-1.148,2.555-2.571V48.189z"/>
</g>
</svg>
