<?xml version="1.0" encoding="utf-8"?>
<!-- Generator: Adobe Illustrator 16.0.0, SVG Export Plug-In . SVG Version: 6.00 Build 0)  -->
<!DOCTYPE svg PUBLIC "-//W3C//DTD SVG 1.1//EN" "http://www.w3.org/Graphics/SVG/1.1/DTD/svg11.dtd">
<svg version="1.1" id="Layer_1" xmlns="http://www.w3.org/2000/svg" xmlns:xlink="http://www.w3.org/1999/xlink" x="0px" y="0px"
	 width="120px" height="120px" viewBox="0 0 120 120" enable-background="new 0 0 120 120" xml:space="preserve">
<g>
	<path fill="#1D1D1B" d="M41.698,69.171c-1.663,2.102-4.243,3.446-7.129,3.446c-5.033,0-9.104-4.078-9.104-9.104
		c0-5.033,4.071-9.105,9.104-9.105c2.733,0,5.186,1.202,6.85,3.112l3.413-4.341c-2.629-2.623-6.256-4.236-10.262-4.236
		C26.524,48.943,20,55.467,20,63.513c0,8.046,6.524,14.564,14.569,14.564c4.023,0,7.661-1.63,10.295-4.258L41.698,69.171z"/>
	<rect x="47.782" y="49.532" fill="#1D1D1B" width="6.146" height="28.225"/>
	<rect x="81.297" y="49.681" fill="#1D1D1B" width="6.146" height="28.225"/>
	<path fill="#1D1D1B" d="M70.781,78.044c-5.283,0-6.546-4.516-6.675-7.056h-0.04v-16.13h-5.402v-5.174h5.403v-5.477l5.477-3.33
		l-0.147,4.197v4.609h5.547v5.174h-5.547v14.316c-0.036,0.2-0.052,0.406-0.052,0.615c0,0.21,0.016,0.416,0.052,0.616v0.321
		c0.209,1.252,1.051,2.289,2.185,2.776c0.444,0.19,0.935,0.297,1.451,0.297c1.15,0,2.18-0.525,2.856-1.351
		c0.151-0.187,0.285-0.387,0.399-0.601c0.003-0.002,0.003-0.005,0.007-0.005C76.295,71.842,76.404,78.044,70.781,78.044z"/>
	<path fill="#1D1D1B" d="M69.396,69.174v1.231c-0.036-0.2-0.052-0.406-0.052-0.616C69.345,69.578,69.36,69.374,69.396,69.174z"/>
	<path fill="#1D1D1B" d="M68.615,32.068c-10.427,0-19.613,5.312-25.001,13.379h8.692c4.204-4.11,9.967-6.651,16.31-6.651
		c6.344,0,12.105,2.54,16.309,6.651h8.693C88.229,37.379,79.042,32.068,68.615,32.068z"/>
	<g>
		<path fill="#1D1D1B" d="M95.648,44.945v-3.126h1.502c0.278,0,0.492,0.025,0.64,0.076c0.146,0.051,0.265,0.146,0.356,0.285
			c0.089,0.139,0.135,0.308,0.135,0.507c0,0.173-0.036,0.323-0.104,0.449c-0.069,0.126-0.164,0.229-0.285,0.307
			c-0.078,0.048-0.184,0.09-0.316,0.123c0.106,0.039,0.185,0.077,0.234,0.115c0.034,0.026,0.082,0.08,0.145,0.164
			c0.063,0.085,0.105,0.149,0.126,0.195l0.437,0.906H97.5l-0.482-0.956c-0.061-0.124-0.114-0.204-0.164-0.24
			c-0.064-0.049-0.137-0.073-0.219-0.073h-0.08v1.269L95.648,44.945L95.648,44.945z M96.554,43.086h0.381
			c0.042,0,0.121-0.015,0.239-0.043c0.059-0.013,0.108-0.045,0.146-0.099c0.038-0.051,0.058-0.112,0.058-0.182
			c0-0.1-0.031-0.178-0.091-0.232c-0.059-0.053-0.171-0.081-0.335-0.081h-0.396L96.554,43.086L96.554,43.086z"/>
	</g>
	<path fill="#1D1D1B" d="M96.845,40.267c-1.742,0-3.155,1.413-3.155,3.155s1.413,3.155,3.155,3.155S100,45.164,100,43.422
		S98.587,40.267,96.845,40.267z M96.845,45.998c-1.421,0-2.576-1.154-2.576-2.576s1.155-2.574,2.576-2.574s2.572,1.152,2.572,2.574
		S98.266,45.998,96.845,45.998z"/>
</g>
<path fill="#1D1D1B" d="M60.038,59.092v1.816c-0.052-0.295-0.076-0.599-0.076-0.908S59.986,59.387,60.038,59.092z"/>
</svg>
