<?xml version="1.0" encoding="utf-8"?>
<!-- Generator: Adobe Illustrator 16.0.0, SVG Export Plug-In . SVG Version: 6.00 Build 0)  -->
<!DOCTYPE svg PUBLIC "-//W3C//DTD SVG 1.1//EN" "http://www.w3.org/Graphics/SVG/1.1/DTD/svg11.dtd">
<svg version="1.1" id="Layer_1" xmlns="http://www.w3.org/2000/svg" xmlns:xlink="http://www.w3.org/1999/xlink" x="0px" y="0px"
	 width="120px" height="120px" viewBox="0 0 120 120" enable-background="new 0 0 120 120" xml:space="preserve">
<g>
	<path d="M61.748,59.666c-0.975,0-1.676,0.319-2.389,0.644v7.354c0.683,0.066,1.072,0.066,1.721,0.066
		c2.34,0,2.659-1.07,2.659-2.562v-3.514C63.739,60.552,63.373,59.666,61.748,59.666 M46.217,59.265c-1.623,0-1.993,0.89-1.993,1.991
		v0.618h3.984v-0.618C48.208,60.154,47.838,59.265,46.217,59.265 M16.13,66.922c0,0.87,0.412,1.322,1.32,1.322
		c0.976,0,1.552-0.316,2.264-0.644v-1.743h-2.132C16.573,65.857,16.13,66.044,16.13,66.922 M76.857,59.666
		c-1.625,0-2.188,0.886-2.188,1.988v4.025c0,1.104,0.563,1.992,2.188,1.992c1.62,0,2.188-0.888,2.188-1.992v-4.025
		C79.045,60.552,78.478,59.666,76.857,59.666 M8.165,71.433H3.388V59.885H1v-3.98h2.388v-2.389c0-3.247,1.348-5.178,5.177-5.178
		h3.188v3.98H9.761c-1.491,0-1.59,0.556-1.59,1.594l-0.006,1.992h3.611l-0.423,3.98H8.165V71.433z M24.494,71.463h-3.982
		l-0.171-1.006c-1.819,1.006-3.442,1.169-4.512,1.169c-2.921,0-4.475-1.948-4.475-4.643c0-3.179,1.813-4.312,5.059-4.312h3.302
		v-0.687c0-1.624-0.186-2.1-2.685-2.1h-4.085l0.4-3.98h4.465c5.482,0,6.685,1.73,6.685,6.111V71.463z M38.034,60.177
		c-2.478-0.424-3.189-0.518-4.381-0.518c-2.142,0-2.789,0.473-2.789,2.288v3.437c0,1.816,0.647,2.289,2.789,2.289
		c1.192,0,1.903-0.094,4.381-0.52v3.881c-2.171,0.487-3.584,0.614-4.779,0.614c-5.13,0-7.168-2.694-7.168-6.586v-2.788
		c0-3.895,2.038-6.593,7.168-6.593c1.195,0,2.608,0.129,4.779,0.616V60.177z M52.985,65.062h-8.761v0.321
		c0,1.816,0.647,2.289,2.788,2.289c1.926,0,3.1-0.094,5.573-0.52v3.881c-2.385,0.487-3.627,0.614-5.968,0.614
		c-5.13,0-7.17-2.694-7.17-6.586v-3.188c0-3.404,1.515-6.194,6.77-6.194c5.257,0,6.768,2.757,6.768,6.194V65.062z M68.517,65.135
		c0,3.762-1.077,6.506-7.598,6.506c-2.354,0-3.736-0.208-6.335-0.607v-21.5l4.776-0.795v7.52c1.032-0.383,2.368-0.578,3.584-0.578
		c4.778,0,5.573,2.14,5.573,5.576V65.135z M83.827,65.217c0,3.245-1.342,6.393-6.954,6.393c-5.615,0-6.982-3.147-6.982-6.393v-3.133
		c0-3.245,1.367-6.393,6.982-6.393c5.612,0,6.954,3.148,6.954,6.393V65.217z M99.125,65.217c0,3.245-1.342,6.393-6.953,6.393
		c-5.615,0-6.982-3.147-6.982-6.393v-3.133c0-3.245,1.367-6.393,6.982-6.393c5.611,0,6.953,3.148,6.953,6.393V65.217z
		 M114.828,71.433h-5.179l-4.378-7.298v7.298h-4.777v-21.9l4.777-0.795v14.098l4.378-6.932h5.179l-4.781,7.564L114.828,71.433z
		 M92.156,59.666c-1.623,0-2.186,0.886-2.186,1.988v4.025c0,1.104,0.562,1.992,2.186,1.992c1.619,0,2.193-0.888,2.193-1.992v-4.025
		C94.35,60.552,93.775,59.666,92.156,59.666"/>
	<path d="M117.555,68.71c0.805,0,1.445,0.655,1.445,1.473c0,0.831-0.641,1.479-1.452,1.479c-0.805,0-1.459-0.648-1.459-1.479
		c0-0.817,0.654-1.473,1.459-1.473H117.555z M117.548,68.939c-0.646,0-1.178,0.556-1.178,1.243c0,0.7,0.531,1.25,1.185,1.25
		c0.654,0.007,1.178-0.55,1.178-1.244c0-0.693-0.523-1.249-1.178-1.249H117.548z M117.272,71.041h-0.261v-1.645
		c0.137-0.02,0.268-0.038,0.464-0.038c0.249,0,0.412,0.052,0.511,0.124s0.149,0.183,0.149,0.34c0,0.216-0.143,0.347-0.319,0.4v0.013
		c0.144,0.026,0.242,0.156,0.274,0.398c0.039,0.256,0.079,0.354,0.105,0.407h-0.275c-0.039-0.053-0.08-0.204-0.111-0.419
		c-0.04-0.21-0.144-0.289-0.354-0.289h-0.183V71.041z M117.272,70.131h0.19c0.215,0,0.398-0.079,0.398-0.281
		c0-0.145-0.104-0.289-0.398-0.289c-0.085,0-0.146,0.007-0.19,0.014V70.131z"/>
</g>
</svg>
