<?xml version="1.0" encoding="utf-8"?>
<!-- Generator: Adobe Illustrator 16.0.0, SVG Export Plug-In . SVG Version: 6.00 Build 0)  -->
<!DOCTYPE svg PUBLIC "-//W3C//DTD SVG 1.1//EN" "http://www.w3.org/Graphics/SVG/1.1/DTD/svg11.dtd">
<svg version="1.1" id="Layer_1" xmlns="http://www.w3.org/2000/svg" xmlns:xlink="http://www.w3.org/1999/xlink" x="0px" y="0px"
	 width="120px" height="120px" viewBox="0 0 120 120" enable-background="new 0 0 120 120" xml:space="preserve">
<g>
	<path d="M84.039,51.867c0.875,0.723,2.7,2.245,2.7,5.138c0,2.815-1.599,4.149-3.196,5.404c-0.495,0.493-1.065,1.027-1.065,1.865
		c0,0.836,0.57,1.293,0.988,1.637l1.372,1.062c1.674,1.409,3.195,2.704,3.195,5.33c0,3.577-3.464,7.191-10.008,7.191
		c-5.519,0-8.181-2.625-8.181-5.442c0-1.37,0.683-3.309,2.931-4.643c2.357-1.445,5.556-1.635,7.268-1.751
		c-0.534-0.686-1.143-1.407-1.143-2.586c0-0.646,0.191-1.029,0.381-1.484c-0.42,0.037-0.837,0.075-1.218,0.075
		c-4.033,0-6.316-3.007-6.316-5.974c0-1.75,0.8-3.692,2.435-5.1c2.17-1.789,4.757-2.093,6.812-2.093h7.838l-2.435,1.37H84.039z
		 M81.335,68.764c-0.303-0.039-0.493-0.039-0.872-0.039c-0.344,0-2.399,0.076-3.998,0.609c-0.837,0.305-3.271,1.217-3.271,3.92
		c0,2.701,2.627,4.644,6.697,4.644c3.652,0,5.595-1.754,5.595-4.11C85.485,71.844,84.229,70.818,81.335,68.764z M82.439,61.533
		c0.875-0.877,0.951-2.093,0.951-2.779c0-2.74-1.637-7.002-4.794-7.002c-0.99,0-2.055,0.495-2.665,1.257
		c-0.646,0.799-0.836,1.825-0.836,2.816c0,2.549,1.484,6.772,4.757,6.772C80.804,62.598,81.829,62.143,82.439,61.533z"/>
	<path d="M60.082,68.154c-6.04,0-9.27-4.711-9.27-8.967c0-4.977,4.064-9.231,9.841-9.231c5.583,0,9.079,4.369,9.079,8.966
		C69.732,63.404,66.276,68.154,60.082,68.154z M64.83,65.077c0.914-1.217,1.143-2.735,1.143-4.219c0-3.343-1.597-9.725-6.308-9.725
		c-1.254,0-2.508,0.495-3.418,1.293c-1.482,1.329-1.75,3-1.75,4.635c0,3.761,1.862,9.952,6.46,9.952
		C62.438,67.014,63.958,66.293,64.83,65.077z"/>
	<path d="M39.489,68.154c-6.041,0-9.271-4.711-9.271-8.967c0-4.977,4.066-9.231,9.842-9.231c5.583,0,9.079,4.369,9.079,8.966
		C49.14,63.404,45.683,68.154,39.489,68.154z M44.238,65.077c0.913-1.217,1.141-2.735,1.141-4.219c0-3.343-1.596-9.725-6.307-9.725
		c-1.254,0-2.508,0.495-3.42,1.293c-1.481,1.329-1.747,3-1.747,4.635c0,3.761,1.861,9.952,6.46,9.952
		C41.847,67.014,43.366,66.293,44.238,65.077z"/>
	<path d="M27.316,67.559l-5.462,1.26c-2.217,0.344-4.202,0.65-6.302,0.65C5.01,69.469,1,61.714,1,55.64
		c0-7.41,5.691-14.283,15.432-14.283c2.063,0,4.048,0.304,5.843,0.801c2.865,0.802,4.202,1.795,5.042,2.368l-3.171,3.018
		l-1.336,0.305l0.955-1.529c-1.299-1.259-3.668-3.589-8.174-3.589C9.556,42.731,5.01,47.316,5.01,54
		c0,7.18,5.195,13.94,13.521,13.94c2.447,0,3.705-0.494,4.852-0.955v-6.148l-5.767,0.305l3.055-1.642h8.098l-0.992,0.954
		c-0.27,0.229-0.306,0.308-0.383,0.611c-0.039,0.345-0.076,1.452-0.076,1.835V67.559z"/>
	<path d="M96.112,66.459c-1.263-0.115-1.526-0.344-1.526-1.833v-0.422V43.006c0.007-0.083,0.014-0.167,0.021-0.247
		c0.152-1.336,0.535-1.565,1.72-2.254h-5.463l-2.866,1.375h2.921v0.017l-0.002-0.013v22.318v1.262c0,0.763-0.152,0.878-1.031,2.022
		h6.761l1.414-0.838C97.411,66.572,96.762,66.535,96.112,66.459z"/>
	<path d="M111.654,66.811c-0.416,0.227-0.834,0.494-1.25,0.684c-1.254,0.568-2.543,0.72-3.682,0.72
		c-1.212,0-3.109-0.077-5.046-1.479c-2.69-1.897-3.868-5.16-3.868-8.004c0-5.879,4.781-8.762,8.688-8.762
		c1.365,0,2.771,0.341,3.908,1.062c1.896,1.25,2.388,2.88,2.653,3.753l-8.913,3.604l-2.923,0.228
		c0.948,4.817,4.212,7.624,7.815,7.624c1.935,0,3.338-0.682,4.628-1.326L111.654,66.811z M108.09,55.505
		c0.72-0.266,1.099-0.493,1.099-1.024c0-1.516-1.706-3.263-3.755-3.263c-1.52,0-4.363,1.177-4.363,5.273
		c0,0.646,0.076,1.328,0.115,2.011L108.09,55.505z"/>
	<g>
		<path d="M115.315,50.228v2.502h-0.304v-2.502h-0.829v-0.26h1.961v0.26H115.315z"/>
		<path d="M118.727,52.73v-2.526h-0.013l-0.771,2.526h-0.236l-0.778-2.526h-0.011v2.526h-0.275v-2.762h0.473l0.704,2.233h0.01
			l0.692-2.233H119v2.762H118.727z"/>
	</g>
</g>
</svg>
