<?xml version="1.0" encoding="utf-8"?>
<!-- Generator: Adobe Illustrator 16.0.0, SVG Export Plug-In . SVG Version: 6.00 Build 0)  -->
<!DOCTYPE svg PUBLIC "-//W3C//DTD SVG 1.1//EN" "http://www.w3.org/Graphics/SVG/1.1/DTD/svg11.dtd">
<svg version="1.1" id="Layer_1" xmlns="http://www.w3.org/2000/svg" xmlns:xlink="http://www.w3.org/1999/xlink" x="0px" y="0px"
	 width="120px" height="120px" viewBox="0 0 120 120" enable-background="new 0 0 120 120" xml:space="preserve">
<g>
	<path d="M1,47.401h11.987c-0.001,3.996,0,7.991-0.001,11.987c-3.995,0-7.991,0-11.986,0V47.401L1,47.401z"/>
	<path d="M14.211,47.401h11.987c0,3.996,0.001,7.991,0,11.987c-3.995-0.001-7.991,0-11.986,0
		C14.21,55.392,14.211,51.396,14.211,47.401L14.211,47.401z"/>
	<path d="M53.59,52.12c0.522-0.08,1.088,0.099,1.435,0.508c0.406,0.448,0.481,1.16,0.18,1.684c-0.333,0.59-1.077,0.865-1.726,0.723
		c-0.673-0.121-1.234-0.747-1.204-1.444C52.256,52.856,52.87,52.202,53.59,52.12L53.59,52.12z"/>
	<path d="M33.722,52.44c1.257,0,2.514,0,3.771,0c1.173,2.98,2.355,5.957,3.531,8.937c0.3,0.746,0.581,1.5,0.896,2.238
		c1.51-3.723,3.041-7.438,4.539-11.166c1.209-0.02,2.418-0.004,3.628-0.007c-0.003,5.039-0.001,10.078,0,15.117
		c-0.873-0.002-1.745,0.008-2.616-0.005c0.009-3.719-0.001-7.437,0.004-11.156c0.001-0.167-0.004-0.334-0.016-0.501
		c-0.051,0.078-0.097,0.158-0.136,0.242c-1.498,3.807-3.025,7.602-4.515,11.413c-0.621,0.021-1.242,0.001-1.863,0.011
		c-1.546-3.806-3.072-7.621-4.61-11.431c-0.04-0.079-0.083-0.156-0.13-0.23c-0.032,1.629-0.005,3.26-0.014,4.889
		c0.001,2.256-0.001,4.513,0.001,6.769c-0.823,0.002-1.646,0-2.468,0.001C33.721,62.52,33.72,57.48,33.722,52.44L33.722,52.44z"/>
	<path d="M60.725,56.713c1.251-0.356,2.6-0.342,3.851,0.012c0.258,0.072,0.508,0.172,0.739,0.308c-0.015,0.826,0,1.652-0.008,2.479
		c-0.836-0.638-1.896-1.043-2.959-0.909c-0.844,0.076-1.649,0.514-2.153,1.196c-0.649,0.845-0.799,1.967-0.687,3.001
		c0.083,0.81,0.418,1.618,1.047,2.154c0.653,0.581,1.57,0.786,2.426,0.722c0.845-0.097,1.643-0.455,2.326-0.954
		c0.007,0.782-0.004,1.565,0.005,2.348c-1.059,0.63-2.33,0.794-3.543,0.733c-1.241-0.065-2.479-0.535-3.377-1.408
		c-0.977-0.941-1.506-2.283-1.569-3.627c-0.063-1.397,0.221-2.855,1.025-4.022C58.522,57.75,59.577,57.044,60.725,56.713
		L60.725,56.713z"/>
	<path d="M89.045,56.548c1.198-0.211,2.453-0.056,3.588,0.374c0.001,0.795,0,1.589,0,2.383c-0.793-0.545-1.761-0.838-2.723-0.804
		c-0.484,0.019-1.018,0.224-1.238,0.685c-0.176,0.456-0.054,1.054,0.376,1.326c0.735,0.492,1.612,0.701,2.374,1.141
		c0.6,0.338,1.182,0.778,1.484,1.413c0.571,1.189,0.33,2.761-0.674,3.647c-0.959,0.896-2.339,1.145-3.607,1.096
		c-0.902-0.058-1.808-0.235-2.637-0.604c0.004-0.836-0.004-1.672,0.005-2.507c0.696,0.507,1.501,0.868,2.353,1.015
		c0.592,0.098,1.236,0.102,1.789-0.164c0.527-0.262,0.623-1.014,0.309-1.473c-0.293-0.354-0.725-0.549-1.131-0.74
		c-0.764-0.344-1.566-0.631-2.238-1.146c-0.471-0.367-0.828-0.886-0.969-1.47c-0.207-0.862-0.143-1.833,0.359-2.586
		C87.037,57.255,88.031,56.729,89.045,56.548L89.045,56.548z"/>
	<path d="M71.112,56.89c0.716-0.43,1.625-0.466,2.406-0.203c-0.004,0.864,0,1.729-0.002,2.594c-0.512-0.331-1.149-0.473-1.753-0.412
		c-0.735,0.083-1.318,0.648-1.621,1.296c-0.328,0.686-0.391,1.462-0.369,2.212c0,1.728,0,3.454,0,5.182c-0.853,0-1.704,0-2.557,0
		c-0.002-3.61,0.004-7.22-0.002-10.83c0.854-0.011,1.707-0.007,2.561-0.002c-0.004,0.62,0,1.24-0.003,1.86
		C70.05,57.913,70.463,57.258,71.112,56.89L71.112,56.89z"/>
	<path d="M52.511,56.727c0.859-0.003,1.72-0.012,2.58,0.004c-0.01,3.609-0.001,7.219-0.004,10.828c-0.858,0-1.716,0-2.574,0
		C52.51,63.949,52.513,60.338,52.511,56.727L52.511,56.727z"/>
	<path d="M84.266,59.253c-0.45-1-1.263-1.836-2.265-2.289c-1.155-0.526-2.468-0.596-3.712-0.438
		c-1.307,0.165-2.578,0.78-3.408,1.822c-0.757,0.93-1.125,2.125-1.196,3.312c-0.104,1.396,0.129,2.88,0.95,4.047
		c0.699,1.006,1.803,1.697,2.994,1.953c0.997,0.209,2.039,0.209,3.035,0.002c1.166-0.239,2.255-0.885,2.977-1.836
		c0.706-0.896,1.061-2.027,1.141-3.155C84.862,61.516,84.746,60.319,84.266,59.253z M81.762,64.227
		c-0.248,0.558-0.701,1.028-1.273,1.252c-0.67,0.257-1.422,0.271-2.113,0.092c-0.703-0.185-1.301-0.692-1.625-1.34
		c-0.418-0.834-0.48-1.798-0.395-2.712c0.078-0.832,0.368-1.687,1.002-2.261c0.459-0.429,1.086-0.639,1.705-0.673
		c0.779-0.051,1.609,0.169,2.169,0.736c0.599,0.589,0.831,1.444,0.895,2.258C82.172,62.471,82.136,63.4,81.762,64.227z"/>
	<path d="M105.027,59.566c-0.398-1.075-1.197-2.005-2.227-2.521c-1.181-0.596-2.555-0.683-3.848-0.522
		c-1.043,0.134-2.068,0.53-2.865,1.229c-0.972,0.837-1.542,2.068-1.709,3.328c-0.16,1.26-0.106,2.586,0.406,3.764
		c0.493,1.156,1.465,2.096,2.635,2.555c1.154,0.455,2.437,0.506,3.65,0.31c1.242-0.206,2.419-0.858,3.188-1.863
		c0.822-1.038,1.176-2.382,1.174-3.69C105.449,61.277,105.34,60.39,105.027,59.566z M102.689,63.24c-0.1,0.57-0.297,1.139-0.67,1.59
		c-0.377,0.453-0.938,0.73-1.516,0.814c-0.62,0.094-1.273,0.049-1.854-0.201c-0.627-0.265-1.112-0.807-1.367-1.43
		c-0.309-0.744-0.369-1.566-0.309-2.361c0.06-0.77,0.277-1.56,0.786-2.158c0.464-0.559,1.175-0.868,1.892-0.908
		c0.732-0.051,1.515,0.118,2.078,0.612c0.519,0.431,0.806,1.076,0.938,1.725C102.816,61.686,102.814,62.475,102.689,63.24z"/>
	<path d="M119,58.829v-2.105c-0.855,0.003-1.711-0.007-2.565,0.006c-0.019-1.083-0.002-2.165-0.009-3.246
		c-0.855,0.258-1.706,0.532-2.565,0.777c-0.021,0.821-0.001,1.642-0.011,2.463c-1.265-0.001-2.529,0.001-3.793-0.001
		c0.016-0.646-0.045-1.298,0.049-1.941c0.076-0.507,0.37-1.014,0.864-1.209c0.622-0.256,1.319-0.086,1.911,0.175
		c-0.004-0.741,0.006-1.482-0.006-2.222c-1.245-0.343-2.673-0.276-3.777,0.443c-0.713,0.457-1.23,1.187-1.463,1.996
		c-0.275,0.896-0.135,1.843-0.179,2.763c-0.6-0.004-1.198-0.01-1.797,0.004c0.007,0.692,0.004,1.385,0.001,2.077
		c0.602,0.012,1.203,0.218,1.805,0.229C107.46,61.951,107.463,65,107.463,68c0.864,0,1.729,0,2.594,0c0-3-0.002-6.051,0-8.965
		c1.264-0.002,2.529-0.112,3.795-0.111c0.003,1.858-0.004,3.66,0.002,5.518c0.012,0.865,0.159,1.764,0.732,2.446
		c0.496,0.604,1.283,0.868,2.044,0.924c0.802,0.057,1.63-0.055,2.37-0.376v-2.127c-0.568,0.381-1.354,0.531-1.971,0.186
		c-0.37-0.204-0.514-0.641-0.561-1.034c-0.078-0.668-0.029-1.342-0.043-2.013c0-1.211,0.002-2.42-0.001-3.631
		C117.283,58.819,118.142,58.793,119,58.829z"/>
	<path d="M1,60.611c3.996,0.001,7.991-0.001,11.987,0.001c0,3.996,0,7.991,0,11.987H1V60.611L1,60.611z"/>
	<path d="M14.212,60.613c3.995-0.001,7.991-0.001,11.986-0.001c0,3.996,0,7.992,0,11.988H14.211
		C14.212,68.604,14.21,64.607,14.212,60.613L14.212,60.613z"/>
</g>
</svg>
