<?xml version="1.0" encoding="utf-8"?>
<!-- Generator: Adobe Illustrator 16.0.0, SVG Export Plug-In . SVG Version: 6.00 Build 0)  -->
<!DOCTYPE svg PUBLIC "-//W3C//DTD SVG 1.1//EN" "http://www.w3.org/Graphics/SVG/1.1/DTD/svg11.dtd">
<svg version="1.1" id="Layer_1" xmlns="http://www.w3.org/2000/svg" xmlns:xlink="http://www.w3.org/1999/xlink" x="0px" y="0px"
	 width="120px" height="120px" viewBox="0 0 120 120" enable-background="new 0 0 120 120" xml:space="preserve">
<path fill-rule="evenodd" clip-rule="evenodd" d="M51.957,62.32h7.772l-4.103-6.693L48.07,67.719h-3.455l9.177-14.466
	c0.432-0.54,1.08-0.972,1.835-0.972c0.648,0,1.296,0.432,1.729,0.972l9.284,14.466h-3.455l-1.619-2.699h-7.989L51.957,62.32
	L51.957,62.32z M87.691,65.02V52.497h-2.914v13.71c0,0.432,0.107,0.758,0.432,1.08c0.215,0.215,0.647,0.432,1.079,0.432h13.279
	l1.727-2.699H87.691L87.691,65.02z M39.325,62.754c2.808,0,5.183-2.268,5.183-5.183c0-2.807-2.375-5.074-5.183-5.074H26.586v15.222
	h2.915V55.196h9.608c1.404,0,2.483,1.08,2.483,2.375c0,1.403-1.079,2.483-2.483,2.483h-8.204l8.744,7.665h4.21l-5.829-4.965H39.325
	L39.325,62.754z M8.558,67.719C4.347,67.719,1,64.264,1,60.054c0-4.21,3.347-7.557,7.558-7.557h8.853
	c4.21,0,7.557,3.347,7.557,7.557c0,4.21-3.347,7.665-7.557,7.665H8.558L8.558,67.719z M17.193,65.02
	c2.699,0,4.967-2.266,4.967-4.966c0-2.699-2.268-4.858-4.967-4.858H8.772c-2.698,0-4.966,2.159-4.966,4.858
	c0,2.7,2.268,4.966,4.966,4.966H17.193L17.193,65.02z M72.686,67.719c-4.211,0-7.558-3.455-7.558-7.665
	c0-4.21,3.347-7.557,7.558-7.557h10.472l-1.727,2.699H72.9c-2.698,0-4.966,2.159-4.966,4.858c0,2.7,2.268,4.966,4.966,4.966h10.473
	l-1.619,2.699H72.686L72.686,67.719z M108.42,65.02c-2.268,0-4.103-1.512-4.75-3.562h12.523l1.727-2.7h-14.25
	c0.647-2.051,2.482-3.562,4.75-3.562h8.637l1.728-2.699h-10.58c-4.103,0-7.558,3.347-7.558,7.557c0,4.21,3.455,7.665,7.558,7.665
	h9.068L119,65.02H108.42L108.42,65.02z"/>
</svg>
