<?xml version="1.0" encoding="utf-8"?>
<!-- Generator: Adobe Illustrator 16.0.0, SVG Export Plug-In . SVG Version: 6.00 Build 0)  -->
<!DOCTYPE svg PUBLIC "-//W3C//DTD SVG 1.1//EN" "http://www.w3.org/Graphics/SVG/1.1/DTD/svg11.dtd">
<svg version="1.1" id="Layer_3" xmlns="http://www.w3.org/2000/svg" xmlns:xlink="http://www.w3.org/1999/xlink" x="0px" y="0px"
	 width="175px" height="30px" viewBox="-272 317.5 175 30" enable-background="new -272 317.5 175 30" xml:space="preserve">
<path fill="#3E5569" d="M-242.186,343.5c0,1.104-0.896,2-2,2H-268c-1.104,0-2-0.896-2-2v-22c0-1.104,0.896-2,2-2h23.814
	c1.104,0,2,0.896,2,2V343.5z"/>
<path fill="#6289A5" d="M-230.5,322.534h2.965v19.653h-2.965V322.534z M-221.167,325.315v16.862h2.965v-16.862h4.503v-2.781h-11.992
	v2.781H-221.167z M-209.93,340.292c1.447,1.497,3.22,2.242,5.329,2.242s3.892-0.744,5.349-2.242
	c1.293-1.345,1.935-3.046,1.935-5.114v-12.644h-2.964v11.829c0,1.711-0.275,2.944-0.826,3.697c-0.825,1.131-1.986,1.693-3.484,1.693
	s-2.648-0.562-3.475-1.693c-0.549-0.783-0.824-2.016-0.824-3.697v-11.829h-2.975v12.654
	C-211.865,337.246-211.213,338.957-209.93,340.292z"/>
<g>
	<path fill="#3E5569" d="M-188.767,342.534v-19.81h5.698c1.129,0,2.109,0.111,2.94,0.336c0.831,0.224,1.517,0.553,2.058,0.986
		c0.541,0.435,0.942,0.964,1.204,1.589c0.261,0.626,0.392,1.335,0.392,2.129c0,0.522-0.091,1.026-0.273,1.512
		c-0.182,0.485-0.446,0.934-0.791,1.344c-0.345,0.411-0.768,0.768-1.267,1.071c-0.5,0.303-1.066,0.534-1.701,0.692
		c1.559,0.233,2.755,0.754,3.591,1.562s1.253,1.864,1.253,3.171c0,0.84-0.149,1.596-0.448,2.268
		c-0.299,0.673-0.733,1.242-1.302,1.708c-0.569,0.467-1.269,0.824-2.1,1.071c-0.831,0.247-1.773,0.371-2.828,0.371H-188.767z
		 M-187.324,331.992h4.284c0.915,0,1.696-0.116,2.345-0.35c0.648-0.233,1.181-0.542,1.596-0.925
		c0.416-0.382,0.721-0.816,0.917-1.302c0.196-0.485,0.294-0.984,0.294-1.498c0-1.334-0.422-2.345-1.267-3.031
		c-0.845-0.686-2.149-1.028-3.913-1.028h-4.256V331.992z M-187.324,333.042v8.344h4.97c1.736,0,3.05-0.375,3.941-1.127
		c0.892-0.751,1.337-1.808,1.337-3.171c0-0.625-0.119-1.188-0.357-1.687c-0.238-0.499-0.581-0.924-1.029-1.274
		c-0.448-0.35-0.999-0.618-1.652-0.805c-0.653-0.187-1.396-0.28-2.226-0.28H-187.324z"/>
	<path fill="#3E5569" d="M-171.028,333.574v8.96h-1.442v-19.81h5.068c2.277,0,3.983,0.44,5.117,1.322
		c1.134,0.882,1.701,2.178,1.701,3.886c0,0.756-0.133,1.446-0.399,2.071c-0.266,0.626-0.644,1.174-1.134,1.646
		c-0.49,0.471-1.083,0.858-1.778,1.162c-0.695,0.303-1.472,0.502-2.331,0.595c0.224,0.14,0.425,0.327,0.602,0.56l6.818,8.568h-1.232
		c-0.159,0-0.292-0.025-0.399-0.077c-0.107-0.051-0.208-0.146-0.301-0.287l-6.356-8.036c-0.075-0.103-0.151-0.19-0.231-0.266
		c-0.079-0.074-0.168-0.133-0.266-0.175c-0.098-0.042-0.215-0.072-0.35-0.091s-0.301-0.028-0.497-0.028H-171.028z M-171.028,332.51
		h3.43c0.877,0,1.664-0.104,2.359-0.314c0.695-0.21,1.283-0.511,1.764-0.903c0.48-0.392,0.847-0.863,1.099-1.414
		s0.378-1.171,0.378-1.861c0-1.409-0.46-2.455-1.379-3.137c-0.919-0.681-2.261-1.021-4.025-1.021h-3.626V332.51z"/>
	<path fill="#3E5569" d="M-155.433,342.534h-1.442v-19.81h1.442V342.534z"/>
	<path fill="#3E5569" d="M-134.293,332.622c0,1.531-0.229,2.907-0.686,4.13c-0.458,1.223-1.102,2.264-1.932,3.122
		c-0.831,0.859-1.827,1.517-2.989,1.975c-1.162,0.457-2.443,0.686-3.843,0.686h-7.238v-19.81h7.238c1.4,0,2.681,0.229,3.843,0.686
		c1.162,0.457,2.158,1.115,2.989,1.974c0.831,0.859,1.475,1.899,1.932,3.122C-134.521,329.729-134.293,331.101-134.293,332.622z
		 M-135.777,332.622c0-1.381-0.191-2.613-0.574-3.696c-0.383-1.082-0.924-1.997-1.624-2.743c-0.7-0.747-1.54-1.316-2.52-1.708
		c-0.98-0.393-2.063-0.589-3.248-0.589h-5.796v17.486h5.796c1.185,0,2.268-0.196,3.248-0.588s1.82-0.961,2.52-1.708
		c0.7-0.747,1.241-1.661,1.624-2.744C-135.968,335.25-135.777,334.013-135.777,332.622z"/>
	<path fill="#3E5569" d="M-118.445,342.198c-1.12,0.373-2.38,0.56-3.78,0.56c-1.568,0-2.977-0.24-4.228-0.721
		c-1.251-0.48-2.317-1.162-3.199-2.044s-1.559-1.948-2.03-3.199c-0.472-1.25-0.707-2.641-0.707-4.172
		c0-1.53,0.231-2.919,0.693-4.165s1.125-2.31,1.988-3.191c0.863-0.883,1.906-1.563,3.129-2.045c1.222-0.48,2.599-0.721,4.13-0.721
		c0.756,0,1.454,0.052,2.093,0.154s1.234,0.254,1.785,0.455c0.551,0.2,1.064,0.448,1.54,0.742s0.933,0.632,1.372,1.015l-0.392,0.616
		c-0.131,0.224-0.327,0.275-0.588,0.153c-0.14-0.056-0.341-0.187-0.602-0.392c-0.262-0.205-0.621-0.42-1.078-0.644
		c-0.458-0.225-1.024-0.425-1.701-0.603c-0.677-0.177-1.5-0.266-2.471-0.266c-1.288,0-2.453,0.205-3.493,0.616
		c-1.041,0.41-1.927,0.998-2.66,1.764c-0.732,0.766-1.297,1.698-1.694,2.8c-0.397,1.102-0.595,2.338-0.595,3.71
		c0,1.391,0.198,2.642,0.595,3.752c0.396,1.111,0.971,2.054,1.722,2.828c0.751,0.774,1.664,1.367,2.737,1.778
		c1.073,0.41,2.282,0.615,3.626,0.615c0.588,0,1.132-0.034,1.631-0.104c0.5-0.07,0.976-0.175,1.428-0.315
		c0.453-0.14,0.891-0.31,1.316-0.511c0.425-0.2,0.856-0.427,1.295-0.679v-5.334h-3.794c-0.103,0-0.189-0.033-0.259-0.099
		c-0.07-0.064-0.105-0.14-0.105-0.224v-0.784h5.46v7.042C-116.27,341.288-117.325,341.825-118.445,342.198z"/>
	<path fill="#3E5569" d="M-100.05,322.725v1.189h-10.43v8.008h8.68v1.162h-8.68v8.26h10.458l-0.028,1.19h-11.872v-19.81H-100.05z"/>
</g>
<path fill="#FFFFFF" d="M-259.884,341.617c-0.002-0.052-0.012-0.103-0.012-0.154c0-2.217,1.797-4.015,4.014-4.015
	c2.217,0,4.014,1.798,4.014,4.015c0,0.052-0.01,0.103-0.011,0.154h5.569v-2.625c0-0.342-0.276-0.618-0.617-0.618h-1.882
	c-1.191-2.725-3.907-4.631-7.072-4.631c-3.165,0-5.881,1.906-7.072,4.631h-1.882c-0.341,0-0.617,0.276-0.617,0.618v2.625H-259.884z"
	/>
</svg>
