<?xml version="1.0" encoding="utf-8"?>
<!-- Generator: Adobe Illustrator 16.0.0, SVG Export Plug-In . SVG Version: 6.00 Build 0)  -->
<!DOCTYPE svg PUBLIC "-//W3C//DTD SVG 1.1//EN" "http://www.w3.org/Graphics/SVG/1.1/DTD/svg11.dtd">
<svg version="1.1" id="Layer_3" xmlns="http://www.w3.org/2000/svg" xmlns:xlink="http://www.w3.org/1999/xlink" x="0px" y="0px"
	 width="128px" height="30px" viewBox="0 0 128 30" enable-background="new 0 0 128 30" xml:space="preserve">
<g>
	<path fill="#FFFFFF" d="M36.233,25.034V5.225h5.699c1.129,0,2.108,0.109,2.939,0.336c0.831,0.225,1.518,0.553,2.059,0.984
		c0.541,0.436,0.941,0.964,1.203,1.589c0.262,0.626,0.393,1.335,0.393,2.13c0,0.521-0.092,1.025-0.271,1.512
		c-0.181,0.485-0.443,0.936-0.791,1.346c-0.345,0.411-0.77,0.77-1.27,1.07c-0.5,0.303-1.063,0.533-1.698,0.69
		c1.56,0.233,2.755,0.754,3.591,1.562c0.836,0.809,1.253,1.863,1.253,3.172c0,0.84-0.147,1.596-0.446,2.268
		c-0.301,0.674-0.732,1.242-1.304,1.708c-0.567,0.468-1.271,0.824-2.103,1.071c-0.828,0.247-1.771,0.371-2.825,0.371L36.233,25.034
		L36.233,25.034z M37.676,14.492h4.284c0.915,0,1.696-0.116,2.345-0.35c0.649-0.234,1.182-0.543,1.596-0.928
		c0.416-0.382,0.724-0.814,0.918-1.302c0.195-0.483,0.293-0.981,0.293-1.498c0-1.334-0.422-2.347-1.266-3.03
		C45,6.699,43.695,6.357,41.932,6.357h-4.256V14.492L37.676,14.492z M37.676,15.542v8.344h4.971c1.735,0,3.049-0.375,3.94-1.127
		c0.892-0.751,1.337-1.808,1.337-3.171c0-0.625-0.119-1.188-0.357-1.688c-0.235-0.498-0.58-0.924-1.026-1.273
		c-0.448-0.35-0.999-0.618-1.649-0.805c-0.654-0.188-1.396-0.28-2.229-0.28H37.676z"/>
	<path fill="#FFFFFF" d="M53.973,16.074v8.96h-1.443V5.225h5.068c2.277,0,3.983,0.438,5.117,1.32
		c1.135,0.882,1.701,2.18,1.701,3.887c0,0.756-0.133,1.445-0.398,2.07c-0.267,0.626-0.645,1.174-1.135,1.646
		s-1.083,0.857-1.777,1.162c-0.693,0.303-1.473,0.502-2.332,0.597c0.227,0.14,0.428,0.325,0.604,0.56l6.815,8.568h-1.229
		c-0.157,0-0.292-0.025-0.397-0.077c-0.106-0.051-0.207-0.146-0.301-0.287l-6.355-8.036c-0.075-0.103-0.151-0.189-0.23-0.266
		c-0.08-0.074-0.169-0.135-0.267-0.176c-0.099-0.043-0.216-0.071-0.351-0.092c-0.137-0.02-0.303-0.026-0.496-0.026L53.973,16.074
		L53.973,16.074z M53.973,15.01h3.43c0.877,0,1.664-0.104,2.359-0.314c0.694-0.209,1.282-0.51,1.764-0.9
		c0.479-0.395,0.849-0.861,1.101-1.414c0.252-0.551,0.378-1.171,0.378-1.859c0-1.408-0.46-2.455-1.379-3.139
		c-0.919-0.681-2.264-1.021-4.023-1.021h-3.625v8.648H53.973L53.973,15.01z"/>
	<path fill="#FFFFFF" d="M69.566,25.034h-1.441V5.225h1.441V25.034z"/>
	<path fill="#FFFFFF" d="M90.707,15.122c0,1.53-0.229,2.907-0.686,4.13c-0.459,1.223-1.104,2.264-1.935,3.122
		c-0.831,0.858-1.825,1.517-2.987,1.976c-1.162,0.457-2.442,0.688-3.845,0.688H74.02V5.225h7.235c1.399,0,2.683,0.229,3.845,0.688
		s2.156,1.112,2.987,1.974s1.478,1.899,1.935,3.122C90.479,12.229,90.707,13.602,90.707,15.122z M89.223,15.122
		c0-1.381-0.188-2.613-0.574-3.696c-0.383-1.082-0.924-1.996-1.623-2.742c-0.698-0.748-1.541-1.314-2.521-1.709
		c-0.979-0.393-2.063-0.589-3.248-0.589h-5.796v17.486h5.796c1.185,0,2.269-0.196,3.248-0.588s1.82-0.962,2.521-1.708
		c0.699-0.747,1.24-1.661,1.623-2.744C89.032,17.75,89.223,16.514,89.223,15.122z"/>
	<path fill="#FFFFFF" d="M106.555,24.698c-1.119,0.372-2.38,0.56-3.779,0.56c-1.566,0-2.978-0.24-4.229-0.721
		s-2.316-1.162-3.199-2.044c-0.882-0.882-1.559-1.948-2.029-3.199c-0.473-1.25-0.707-2.642-0.707-4.172s0.23-2.919,0.693-4.165
		c0.461-1.246,1.125-2.311,1.987-3.191c0.862-0.883,1.905-1.562,3.129-2.045C99.643,5.24,101.02,5,102.551,5
		c0.756,0,1.454,0.052,2.094,0.154c0.641,0.102,1.233,0.254,1.785,0.455c0.551,0.199,1.063,0.446,1.539,0.742
		c0.477,0.293,0.934,0.631,1.372,1.014l-0.392,0.617c-0.131,0.224-0.327,0.272-0.588,0.15c-0.141-0.056-0.342-0.188-0.604-0.393
		c-0.262-0.204-0.618-0.422-1.075-0.645c-0.459-0.226-1.024-0.426-1.701-0.604c-0.68-0.178-1.5-0.266-2.474-0.266
		c-1.286,0-2.45,0.205-3.491,0.613c-1.041,0.41-1.929,0.998-2.66,1.766c-0.731,0.767-1.297,1.699-1.693,2.801
		s-0.596,2.338-0.596,3.71c0,1.391,0.199,2.642,0.596,3.752s0.971,2.054,1.722,2.827c0.751,0.775,1.664,1.367,2.737,1.779
		c1.072,0.408,2.281,0.612,3.626,0.612c0.588,0,1.132-0.032,1.631-0.104c0.5-0.068,0.976-0.174,1.429-0.313
		c0.452-0.14,0.893-0.312,1.315-0.511c0.423-0.2,0.856-0.428,1.295-0.68v-5.332h-3.794c-0.104,0-0.189-0.032-0.26-0.101
		c-0.069-0.063-0.104-0.14-0.104-0.224v-0.784h5.46v7.042C108.73,23.788,107.675,24.325,106.555,24.698z"/>
	<path fill="#FFFFFF" d="M124.95,5.225v1.189H114.52v8.008h8.683v1.162h-8.683v8.26h10.459l-0.026,1.19H113.08V5.225H124.95
		L124.95,5.225z"/>
</g>
<path fill="#FFFFFF" d="M27.814,2H4C2.896,2,2,2.896,2,4v22c0,1.104,0.896,2,2,2h23.814c1.104,0,2-0.896,2-2V4
	C29.814,2.896,28.918,2,27.814,2z M25.69,24.117h-5.569c0.001-0.051,0.011-0.102,0.011-0.154c0-2.217-1.797-4.015-4.014-4.015
	c-2.217,0-4.014,1.798-4.014,4.015c0,0.051,0.01,0.102,0.012,0.154H6.548v-2.625c0-0.342,0.276-0.618,0.617-0.618h1.882
	c1.191-2.726,3.907-4.631,7.072-4.631s5.881,1.905,7.072,4.631h1.882c0.341,0,0.617,0.276,0.617,0.618V24.117L25.69,24.117z"/>
</svg>
