<?xml version="1.0" encoding="utf-8"?>
<!-- Generator: Adobe Illustrator 16.0.0, SVG Export Plug-In . SVG Version: 6.00 Build 0)  -->
<!DOCTYPE svg PUBLIC "-//W3C//DTD SVG 1.1//EN" "http://www.w3.org/Graphics/SVG/1.1/DTD/svg11.dtd">
<svg version="1.1" id="Layer_1" xmlns="http://www.w3.org/2000/svg" xmlns:xlink="http://www.w3.org/1999/xlink" x="0px" y="0px"
	 width="55px" height="34px" viewBox="0.5 100.5 55 34" enable-background="new 0.5 100.5 55 34" xml:space="preserve">
<path fill="#1C753C" d="M1.5,101.5h4.755v31.52H1.5V101.5z M16.468,105.961v27.043h4.755v-27.043h7.222V101.5H9.212v4.461H16.468z
	 M34.49,129.98c2.32,2.402,5.164,3.596,8.546,3.596s6.242-1.193,8.579-3.596c2.074-2.156,3.104-4.885,3.104-8.202V101.5h-4.754
	v18.971c0,2.745-0.441,4.723-1.324,5.932c-1.323,1.813-3.186,2.713-5.588,2.713c-2.402,0-4.249-0.899-5.572-2.713
	c-0.882-1.258-1.323-3.235-1.323-5.932V101.5h-4.771v20.295C31.386,125.096,32.432,127.84,34.49,129.98z"/>
</svg>
