<?xml version="1.0" encoding="utf-8"?>
<!-- Generator: Adobe Illustrator 16.0.0, SVG Export Plug-In . SVG Version: 6.00 Build 0)  -->
<!DOCTYPE svg PUBLIC "-//W3C//DTD SVG 1.1//EN" "http://www.w3.org/Graphics/SVG/1.1/DTD/svg11.dtd">
<svg version="1.1" id="Layer_3" xmlns="http://www.w3.org/2000/svg" xmlns:xlink="http://www.w3.org/1999/xlink" x="0px" y="0px"
	 width="175px" height="30px" viewBox="-212 315.5 175 30" enable-background="new -212 315.5 175 30" xml:space="preserve">
<path opacity="0.7" fill="#FFFFFF" enable-background="new    " d="M-170.5,320.534h2.965v19.653h-2.965V320.534z M-161.167,323.314
	v16.861h2.965v-16.861h4.503v-2.78h-11.992v2.78H-161.167z M-149.93,338.292c1.447,1.497,3.22,2.242,5.329,2.242
	s3.892-0.744,5.349-2.242c1.293-1.345,1.935-3.046,1.935-5.114v-12.644h-2.964v11.829c0,1.711-0.275,2.943-0.826,3.697
	c-0.825,1.131-1.986,1.691-3.484,1.691s-2.648-0.562-3.475-1.691c-0.549-0.783-0.824-2.018-0.824-3.697v-11.829h-2.975v12.653
	C-151.865,335.246-151.213,336.957-149.93,338.292z"/>
<g>
	<path fill="#FFFFFF" d="M-128.767,340.534v-19.81h5.699c1.129,0,2.108,0.11,2.939,0.336c0.831,0.225,1.518,0.554,2.059,0.985
		c0.541,0.435,0.941,0.964,1.203,1.589c0.262,0.626,0.393,1.335,0.393,2.129c0,0.522-0.092,1.026-0.272,1.512
		c-0.181,0.486-0.444,0.936-0.791,1.346c-0.345,0.411-0.769,0.77-1.269,1.07c-0.5,0.303-1.064,0.533-1.699,0.691
		c1.559,0.233,2.755,0.754,3.591,1.562c0.836,0.808,1.253,1.863,1.253,3.171c0,0.84-0.148,1.596-0.447,2.268
		c-0.3,0.673-0.732,1.242-1.303,1.708c-0.568,0.467-1.27,0.824-2.102,1.071c-0.829,0.247-1.771,0.371-2.826,0.371H-128.767z
		 M-127.324,329.992h4.284c0.915,0,1.696-0.116,2.345-0.35c0.649-0.234,1.182-0.543,1.596-0.927
		c0.416-0.382,0.723-0.815,0.918-1.302c0.195-0.484,0.293-0.982,0.293-1.498c0-1.334-0.422-2.346-1.266-3.03
		c-0.846-0.686-2.15-1.028-3.914-1.028h-4.256V329.992L-127.324,329.992z M-127.324,331.042v8.344h4.971
		c1.735,0,3.049-0.375,3.94-1.127c0.892-0.751,1.337-1.808,1.337-3.171c0-0.625-0.119-1.188-0.357-1.688
		c-0.236-0.498-0.58-0.924-1.027-1.273c-0.448-0.35-0.999-0.618-1.65-0.805c-0.654-0.188-1.396-0.28-2.228-0.28H-127.324z"/>
	<path fill="#FFFFFF" d="M-111.027,331.574v8.96h-1.443v-19.81h5.068c2.277,0,3.983,0.439,5.117,1.321
		c1.135,0.882,1.701,2.179,1.701,3.886c0,0.756-0.133,1.446-0.398,2.071c-0.267,0.626-0.645,1.174-1.135,1.646
		c-0.49,0.473-1.083,0.858-1.777,1.162s-1.473,0.502-2.332,0.597c0.226,0.14,0.427,0.325,0.604,0.56l6.816,8.568h-1.23
		c-0.158,0-0.292-0.025-0.398-0.077c-0.106-0.051-0.207-0.146-0.301-0.287l-6.355-8.036c-0.075-0.103-0.151-0.189-0.231-0.266
		c-0.079-0.074-0.168-0.135-0.266-0.176c-0.099-0.043-0.216-0.071-0.351-0.092c-0.136-0.019-0.302-0.026-0.496-0.026
		L-111.027,331.574L-111.027,331.574z M-111.027,330.51h3.43c0.877,0,1.664-0.104,2.359-0.314c0.694-0.209,1.282-0.51,1.764-0.901
		c0.479-0.394,0.848-0.862,1.1-1.414c0.252-0.551,0.378-1.171,0.378-1.86c0-1.408-0.46-2.455-1.379-3.138
		c-0.919-0.681-2.263-1.021-4.024-1.021h-3.625v8.648H-111.027z"/>
	<path fill="#FFFFFF" d="M-95.434,340.534h-1.441v-19.81h1.441V340.534z"/>
	<path fill="#FFFFFF" d="M-74.293,330.622c0,1.53-0.229,2.907-0.686,4.13c-0.459,1.223-1.104,2.264-1.934,3.122
		c-0.831,0.858-1.826,1.517-2.988,1.976c-1.162,0.457-2.442,0.687-3.844,0.687h-7.236v-19.812h7.236c1.4,0,2.682,0.229,3.844,0.688
		s2.157,1.113,2.988,1.974s1.477,1.899,1.934,3.122C-74.521,327.729-74.293,329.102-74.293,330.622z M-75.777,330.622
		c0-1.381-0.189-2.613-0.574-3.696c-0.383-1.082-0.924-1.996-1.623-2.742c-0.699-0.748-1.541-1.315-2.521-1.709
		c-0.979-0.393-2.063-0.589-3.248-0.589h-5.796v17.486h5.796c1.185,0,2.269-0.196,3.248-0.588s1.82-0.962,2.521-1.708
		c0.699-0.747,1.24-1.661,1.623-2.744C-75.968,333.25-75.777,332.014-75.777,330.622z"/>
	<path fill="#FFFFFF" d="M-58.445,340.198c-1.119,0.372-2.38,0.56-3.779,0.56c-1.567,0-2.978-0.24-4.229-0.721
		s-2.316-1.162-3.199-2.044c-0.882-0.882-1.559-1.948-2.029-3.199c-0.473-1.25-0.707-2.642-0.707-4.172s0.23-2.919,0.693-4.165
		c0.461-1.246,1.125-2.311,1.987-3.191c0.862-0.883,1.905-1.562,3.129-2.045c1.222-0.48,2.599-0.721,4.13-0.721
		c0.756,0,1.454,0.052,2.094,0.154c0.64,0.102,1.233,0.254,1.785,0.455c0.551,0.199,1.063,0.447,1.539,0.742
		c0.477,0.293,0.934,0.631,1.372,1.014l-0.392,0.617c-0.131,0.224-0.327,0.273-0.588,0.151c-0.141-0.056-0.342-0.188-0.604-0.392
		c-0.262-0.205-0.619-0.422-1.076-0.645c-0.459-0.226-1.024-0.426-1.701-0.604c-0.679-0.178-1.5-0.266-2.473-0.266
		c-1.287,0-2.451,0.205-3.492,0.614c-1.041,0.41-1.928,0.998-2.66,1.765c-0.731,0.767-1.297,1.699-1.693,2.801
		s-0.596,2.338-0.596,3.71c0,1.391,0.199,2.642,0.596,3.752s0.971,2.054,1.722,2.828s1.664,1.366,2.737,1.778
		c1.072,0.409,2.281,0.613,3.626,0.613c0.588,0,1.132-0.033,1.631-0.104c0.5-0.069,0.976-0.174,1.429-0.314
		c0.452-0.14,0.892-0.311,1.315-0.511s0.856-0.427,1.295-0.679v-5.332h-3.794c-0.104,0-0.189-0.033-0.26-0.101
		c-0.069-0.063-0.104-0.14-0.104-0.224v-0.784h5.46v7.042C-56.27,339.288-57.325,339.825-58.445,340.198z"/>
	<path fill="#FFFFFF" d="M-40.05,320.725v1.189H-50.48v8.008h8.682v1.162h-8.682v8.26h10.459l-0.027,1.19h-11.872v-19.81H-40.05
		L-40.05,320.725z"/>
</g>
<path fill="#FFFFFF" d="M-184.186,317.5H-208c-1.104,0-2,0.896-2,2v22c0,1.104,0.896,2,2,2h23.814c1.104,0,2-0.896,2-2v-22
	C-182.186,318.396-183.082,317.5-184.186,317.5z M-186.31,339.617h-5.569c0.001-0.051,0.011-0.102,0.011-0.154
	c0-2.217-1.797-4.015-4.014-4.015c-2.217,0-4.014,1.798-4.014,4.015c0,0.051,0.01,0.102,0.012,0.154h-5.568v-2.625
	c0-0.342,0.276-0.618,0.617-0.618h1.882c1.191-2.726,3.907-4.631,7.072-4.631s5.881,1.905,7.072,4.631h1.882
	c0.341,0,0.617,0.276,0.617,0.618V339.617z"/>
</svg>
