<?xml version="1.0" encoding="utf-8"?>
<!-- Generator: Adobe Illustrator 16.0.0, SVG Export Plug-In . SVG Version: 6.00 Build 0)  -->
<!DOCTYPE svg PUBLIC "-//W3C//DTD SVG 1.1//EN" "http://www.w3.org/Graphics/SVG/1.1/DTD/svg11.dtd">
<svg version="1.1" xmlns="http://www.w3.org/2000/svg" xmlns:xlink="http://www.w3.org/1999/xlink" x="0px" y="0px" width="128px"
	 height="30px" viewBox="-317.5 314 128 30" enable-background="new -317.5 314 128 30" xml:space="preserve">
<g id="Layer_1">
	<path fill="#FFFFFF" d="M-257.604,319.285h2.965v19.653h-2.965V319.285z M-248.271,322.066v16.862h2.965v-16.862h4.503v-2.781
		h-11.992v2.781H-248.271z M-237.034,337.043c1.447,1.497,3.22,2.242,5.329,2.242s3.892-0.744,5.349-2.242
		c1.293-1.345,1.935-3.046,1.935-5.114v-12.644h-2.964v11.829c0,1.711-0.275,2.944-0.826,3.697
		c-0.825,1.131-1.986,1.693-3.484,1.693s-2.648-0.562-3.475-1.693c-0.549-0.783-0.824-2.016-0.824-3.697v-11.829h-2.975v12.654
		C-238.969,333.997-238.317,335.708-237.034,337.043z"/>
</g>
<g id="Layer_2">
	<g>
		<path fill="#FFFFFF" d="M-214.904,339.285h-0.77v-19.684h0.77V339.285z"/>
		<path fill="#FFFFFF" d="M-193.75,329.443c0,1.54-0.224,2.919-0.672,4.137c-0.448,1.218-1.078,2.249-1.89,3.094
			s-1.783,1.491-2.912,1.939s-2.375,0.672-3.738,0.672h-7.098v-19.684h7.098c1.362,0,2.608,0.224,3.738,0.672
			c1.129,0.447,2.1,1.094,2.912,1.938s1.442,1.876,1.89,3.095C-193.974,326.524-193.75,327.903-193.75,329.443z M-194.562,329.443
			c0-1.466-0.203-2.77-0.609-3.913c-0.406-1.144-0.98-2.107-1.722-2.892c-0.742-0.783-1.629-1.381-2.66-1.792
			c-1.031-0.41-2.167-0.615-3.409-0.615h-6.328v18.424h6.328c1.241,0,2.377-0.205,3.409-0.616c1.031-0.41,1.918-1.008,2.66-1.792
			c0.742-0.784,1.316-1.747,1.722-2.891C-194.765,332.213-194.562,330.908-194.562,329.443z"/>
	</g>
</g>
<g id="Layer_3">
	<g>
		<path fill="#FFFFFF" d="M-270.313,315h-45.032c-0.638,0-1.155,0.517-1.155,1.155v25.689c0,0.639,0.517,1.155,1.155,1.155h45.032
			c0.638,0,1.155-0.517,1.155-1.155v-25.689C-269.158,315.517-269.675,315-270.313,315z M-292.479,339.021h-20.171V318.85h20.171
			V339.021z M-280.586,332.648c-2.05,0-3.712-1.663-3.712-3.714c0-2.05,1.663-3.712,3.712-3.712c2.051,0,3.713,1.662,3.713,3.712
			C-276.874,330.985-278.536,332.648-280.586,332.648z"/>
		<path fill="#FFFFFF" d="M-296.417,336.219c0-2.779-1.859-5.104-4.394-5.862c1.441-0.666,2.446-2.115,2.446-3.807
			c0-2.319-1.88-4.2-4.2-4.2c-2.321,0-4.201,1.881-4.201,4.2c0,1.691,1.006,3.141,2.447,3.807c-2.536,0.761-4.394,3.083-4.394,5.862
			v0.001L-296.417,336.219L-296.417,336.219z"/>
	</g>
</g>
</svg>
